<?xml version="1.0" encoding="UTF-8" standalone="no"?>
<!DOCTYPE svg PUBLIC "-//W3C//DTD SVG 1.1//EN" "http://www.w3.org/Graphics/SVG/1.1/DTD/svg11.dtd">
<svg width="100%" height="100%" viewBox="0 0 24 24" version="1.1" xmlns="http://www.w3.org/2000/svg" xmlns:xlink="http://www.w3.org/1999/xlink" xml:space="preserve" xmlns:serif="http://www.serif.com/" style="fill-rule:evenodd;clip-rule:evenodd;stroke-linejoin:round;stroke-miterlimit:1.41421;">
    <path d="M5,3L19,3C20.097,3 21,3.903 21,5L21,19C21,20.097 20.097,21 19,21L14.56,21C14.24,20.93 14.23,20.32 14.23,20.11L14.24,17.64C14.24,16.8 13.95,16.25 13.63,15.97C15.64,15.75 17.74,15 17.74,11.53C17.74,10.55 17.39,9.74 16.82,9.11C16.91,8.89 17.22,7.97 16.73,6.73C16.73,6.73 15.97,6.5 14.25,7.66C13.53,7.46 12.77,7.36 12,7.35C11.24,7.36 10.46,7.46 9.75,7.66C8.03,6.5 7.27,6.73 7.27,6.73C6.78,7.97 7.09,8.89 7.18,9.11C6.61,9.74 6.26,10.55 6.26,11.53C6.26,15 8.36,15.75 10.36,16C10.1,16.2 9.87,16.6 9.79,17.18C9.27,17.41 7.97,17.81 7.17,16.43C7.17,16.43 6.69,15.57 5.79,15.5C5.79,15.5 4.91,15.5 5.73,16.05C5.73,16.05 6.32,16.33 6.73,17.37C6.73,17.37 7.25,19.12 9.76,18.58L9.77,20.11C9.77,20.32 9.75,20.93 9.43,21L5,21C3.903,21 3,20.097 3,19L3,5C3,3.903 3.903,3 5,3Z" style="fill:rgb(158,188,159);fill-rule:nonzero;"/>
</svg>
