<?xml version="1.0" encoding="UTF-8" standalone="no"?>
<!DOCTYPE svg PUBLIC "-//W3C//DTD SVG 1.1//EN" "http://www.w3.org/Graphics/SVG/1.1/DTD/svg11.dtd">
<svg width="100%" height="100%" viewBox="0 0 24 24" version="1.1" xmlns="http://www.w3.org/2000/svg" xmlns:xlink="http://www.w3.org/1999/xlink" xml:space="preserve" xmlns:serif="http://www.serif.com/" style="fill-rule:evenodd;clip-rule:evenodd;stroke-linejoin:round;stroke-miterlimit:1.41421;">
    <path d="M5,3L19,3C20.097,3 21,3.903 21,5L21,19C21,20.097 20.097,21 19,21L5,21C3.903,21 3,20.097 3,19L3,5C3,3.903 3.903,3 5,3M17.71,9.33C18.19,8.93 18.75,8.45 19,7.92C18.59,8.13 18.1,8.26 17.56,8.33C18.06,7.97 18.47,7.5 18.68,6.86C18.16,7.14 17.63,7.38 16.97,7.5C15.42,5.63 11.71,7.15 12.37,9.95C9.76,9.79 8.17,8.61 6.85,7.16C6.1,8.38 6.75,10.23 7.64,10.74C7.18,10.71 6.83,10.57 6.5,10.41C6.54,11.95 7.39,12.69 8.58,13.09C8.22,13.16 7.82,13.18 7.44,13.12C7.81,14.19 8.58,14.86 9.9,15C9,15.76 7.34,16.29 6,16.08C7.15,16.81 8.46,17.39 10.28,17.31C14.69,17.11 17.64,13.95 17.71,9.33Z" style="fill:rgb(158,188,159);fill-rule:nonzero;"/>
</svg>
